<svg height="512pt" viewBox="0 0 512 512" width="512pt" xmlns="http://www.w3.org/2000/svg"><path d="m512 256c0 141.386719-114.613281 256-256 256s-256-114.613281-256-256 114.613281-256 256-256 256 114.613281 256 256zm0 0" fill="#ffaf10"/><path d="m472.761719 34.179688v358.082031c-5.792969 9.1875-12.140625 17.96875-19.011719 26.316406-13.058594 15.871094-28 30.140625-44.46875 42.480469-4.871094 3.640625-9.871094 7.121094-15 10.421875-.800781.507812-1.589844 1.007812-2.402344 1.519531-9.5 5.960938-19.410156 11.308594-29.699218 16h-212.359376c-10.289062-4.691406-20.199218-10.039062-29.699218-16-.8125-.511719-1.601563-1.011719-2.402344-1.519531v-437.300781c0-6.167969 5.011719-11.179688 11.179688-11.179688h332.679687c6.171875 0 11.183594 5.011719 11.183594 11.179688zm0 0" fill="#1a2b63"/><path d="m453.75 41.679688v376.898437c-13.058594 15.871094-28 30.140625-44.46875 42.480469-4.871094 3.640625-9.871094 7.121094-15 10.421875-.800781.507812-1.589844 1.007812-2.402344 1.519531h-271.757812c-.8125-.511719-1.601563-1.011719-2.402344-1.519531-6.546875-4.21875-12.890625-8.71875-19.007812-13.492188v-416.308593c0-1.480469 1.199218-2.679688 2.679687-2.679688h349.679687c1.480469 0 2.679688 1.199219 2.679688 2.679688zm0 0" fill="#d9eafc"/><path d="m409.28125 39v422.058594c-4.871094 3.640625-9.871094 7.121094-15 10.421875-.800781.507812-1.589844 1.007812-2.402344 1.519531h-271.757812c-.8125-.511719-1.601563-1.011719-2.402344-1.519531-6.546875-4.21875-12.890625-8.71875-19.007812-13.492188v-416.308593c0-1.480469 1.199218-2.679688 2.679687-2.679688zm0 0" fill="#c3ddf4"/><path d="m394.28125 34.179688v437.300781c-.800781.507812-1.589844 1.007812-2.402344 1.519531-9.5 5.960938-19.410156 11.308594-29.699218 16h-212.359376c-10.289062-4.691406-20.199218-10.039062-29.699218-16-.8125-.511719-1.601563-1.011719-2.402344-1.519531-6.546875-4.21875-12.890625-8.71875-19.007812-13.492188-23.421876-18.257812-43.582032-40.507812-59.472657-65.726562v-358.082031c0-6.167969 5.011719-11.179688 11.183594-11.179688h332.679687c6.167969 0 11.179688 5.011719 11.179688 11.179688zm0 0" fill="#2e4c89"/><path d="m160.53125 489h-10.710938c-10.289062-4.691406-20.199218-10.039062-29.699218-16-.8125-.511719-1.601563-1.011719-2.402344-1.519531-6.546875-4.21875-12.890625-8.71875-19.007812-13.492188-23.421876-18.257812-43.582032-40.507812-59.472657-65.726562v-358.082031c0-6.167969 5.011719-11.179688 11.183594-11.179688h110.109375c-6.171875 0-11.179688 5.011719-11.179688 11.179688v443.640624c0 6.167969 5.007813 11.179688 11.179688 11.179688zm0 0" fill="#293d7c"/><path d="m315.277344 71.90625c-1.183594-5.203125-5.792969-8.90625-11.128906-8.90625h-174.777344c-5.335938 0-9.945313 3.703125-11.128906 8.90625-3.394532 14.941406-15.15625 26.703125-30.097657 30.097656-5.203125 1.183594-8.90625 5.792969-8.90625 11.128906v285.734376c0 5.335937 3.703125 9.945312 8.90625 11.125 14.941407 3.398437 26.703125 15.160156 30.097657 30.101562 1.183593 5.203125 5.792968 8.90625 11.128906 8.90625h174.777344c5.335937 0 9.945312-3.703125 11.128906-8.90625 3.394531-14.941406 15.15625-26.703125 30.097656-30.101562 5.203125-1.179688 8.90625-5.789063 8.90625-11.125v-285.734376c0-5.335937-3.703125-9.945312-8.90625-11.128906-14.941406-3.394531-26.699219-15.15625-30.097656-30.097656zm0 0" fill="#293d7c"/><path d="m129.371094 63c-5.335938 0-9.941406 3.703125-11.125 8.90625-3.398438 14.941406-15.160156 26.703125-30.097656 30.101562-5.207032 1.179688-8.910157 5.789063-8.910157 11.125v285.734376c0 5.335937 3.703125 9.945312 8.910157 11.128906 14.9375 3.394531 26.699218 15.15625 30.097656 30.097656 1.183594 5.203125 5.789062 8.90625 11.125 8.90625h19.980468v-386zm0 0" fill="#1a2b63"/><path d="m305.726562 215.503906-21.074218 16.945313c-.566406.457031-.898438 1.144531-.898438 1.875v29.898437h-41.101562v-29.898437c0-.730469-.328125-1.417969-.898438-1.875l-23.476562-18.882813c-.882813-.707031-2.136719-.707031-3.015625 0l-23.480469 18.882813c-.566406.457031-.898438 1.144531-.898438 1.875v29.898437h-41.117187v-29.898437c0-.730469-.332031-1.417969-.898437-1.875l-21.074219-16.945313c-1.574219-1.265625-3.914063-.144531-3.914063 1.875v77.683594c0 2.15625 1.746094 3.902344 3.898438 3.902344h177.964844c2.152343 0 3.898437-1.746094 3.898437-3.902344v-77.683594c0-2.023437-2.339844-3.144531-3.914063-1.875zm0 0" fill="#ffd00d"/><path d="m216.761719 213.035156c-.53125.003906-1.0625.179688-1.5.53125l-23.480469 18.878906c-.566406.457032-.898438 1.148438-.898438 1.878907v29.898437h-41.117187v-29.898437c0-.730469-.332031-1.421875-.898437-1.878907l-21.074219-16.941406c-1.574219-1.269531-3.914063-.148437-3.914063 1.875v77.683594c0 2.15625 1.746094 3.902344 3.898438 3.902344h88.980468v-85.929688zm0 0" fill="#ffaf10"/><path d="m215.394531 234.066406-8.28125 8.28125c-.363281.363282-.566406.855469-.566406 1.367188v25.488281c0 .515625.207031 1.007813.566406 1.371094l8.28125 8.277343c.753907.757813 1.976563.757813 2.734375.003907l8.292969-8.28125c.363281-.363281.566406-.855469.566406-1.371094v-25.488281c0-.511719-.203125-1.003906-.566406-1.367188l-8.292969-8.28125c-.757812-.753906-1.980468-.753906-2.734375 0zm0 0" fill="#fe3745"/><path d="m216.761719 233.5c-.496094 0-.992188.1875-1.367188.566406l-8.28125 8.28125c-.363281.363282-.566406.851563-.566406 1.367188v25.488281c0 .515625.207031 1.007813.566406 1.367187l8.28125 8.28125c.375.378907.871094.566407 1.367188.566407zm0 0" fill="#b7092b"/></svg>